HIERARCHY
ROOT pelvis
{
  OFFSET 0 100 0
  CHANNELS 6 Xposition Yposition Zposition Zrotation Xrotation Yrotation
  JOINT pelvis_right_femur
  {
    OFFSET -10.78128 -3.44521 -0.5502486
    CHANNELS 3 Zrotation Xrotation Yrotation
    JOINT right_femur_tibia
    {
      OFFSET -0.8047443 -44.0398 -0.1307829
      CHANNELS 3 Zrotation Xrotation Yrotation
      JOINT right_tibia_foot
      {
        OFFSET 3.006224 -47.83518 -5
        CHANNELS 3 Zrotation Xrotation Yrotation
        End Site
        {
          OFFSET 0 -5 15
        }
      }
    }
  }
  JOINT pelvis_left_femur
  {
    OFFSET 10.78128 -3.44521 -0.5502486
    CHANNELS 3 Zrotation Xrotation Yrotation
    JOINT left_femur_tibia
    {
      OFFSET 0.8047443 -44.0398 -0.1307829
      CHANNELS 3 Zrotation Xrotation Yrotation
      JOINT left_tibia_foot
      {
        OFFSET -4.370144 -48.10324 -4.275266
        CHANNELS 3 Zrotation Xrotation Yrotation
        End Site
        {
          OFFSET 0 -5 15
        }
      }
    }
  }
  JOINT pelvis_spine1
  {
    OFFSET 0 6.468898 -3.129235
    CHANNELS 3 Zrotation Xrotation Yrotation
    JOINT spine1
    {
      OFFSET 0 23.15396 4.99043
      CHANNELS 3 Zrotation Xrotation Yrotation
      JOINT spine2
      {
        OFFSET 0 20.79997 -5.064912
        CHANNELS 3 Zrotation Xrotation Yrotation
        JOINT neck
        {
          OFFSET 0 14.38658 9.616178
          CHANNELS 3 Zrotation Xrotation Yrotation
          End Site
          {
            OFFSET 0 20 0
          }
        }
      }
      JOINT right_manubrium
      {
        OFFSET -5.722621 16.35077 3.967754
        CHANNELS 3 Zrotation Xrotation Yrotation
        JOINT right_clavicle
        {
          OFFSET -13.16364 1.694482 -4.693211
          CHANNELS 3 Zrotation Xrotation Yrotation
          JOINT right_humerus
          {
            OFFSET -28.5034 -0.3100689 -2.792744
            CHANNELS 3 Zrotation Xrotation Yrotation
            JOINT right_radius
            {
              OFFSET -25.15693 0.02248979 -1.271978
              CHANNELS 3 Zrotation Xrotation Yrotation
              End Site
              {
                OFFSET -15 0 0
              }
            }
          }
        }
      }
      JOINT left_manubrium
      {
        OFFSET 5.722621 16.35077 3.967754
        CHANNELS 3 Zrotation Xrotation Yrotation
        JOINT left_clavicle
        {
          OFFSET 13.16364 1.694482 -4.693211
          CHANNELS 3 Zrotation Xrotation Yrotation
          JOINT left_humerus
          {
            OFFSET 29.39168 -1.063119 -2.237045
            CHANNELS 3 Zrotation Xrotation Yrotation
            JOINT left_radius
            {
              OFFSET 24.59957 -0.9528479 0.9047498
              CHANNELS 3 Zrotation Xrotation Yrotation
              End Site
              {
                OFFSET 15 -0 -0
              }
            }
          }
        }
      }
    }
  }
}
MOTION
Frames: 23
Frame Time: 0.0416666666667
-1213.554 102.8705 2525.124 -6.308747 -4.434661 -57.92337 0.5522611 -16.29824 -3.514114 -0 30.82966 -0 -10.46136 7.147564 -0.9089237 -4.743825 8.435541 -9.382495 -0 12.03602 -0 0.4885851 -17.71579 16.50356 -0.1799975 -1.02308 4.653322 0.9522413 12.5171 -7.016302 1.432893 21.41972 5.5375 0.7489131 -24.2455 8.553961 -6.38419 -23.63763 10.12237 99.615 22.54921 -21.30996 -0 0 9.812234 -16.70591 6.557865 8.784152 3.030137 -24.04971 -6.067619 -84.78275 17.45964 18.51075 0 0 -31.3954 7.731118 7.571357 6.479941
-1217.762 101.9364 2528.087 -5.279716 -3.855736 -57.60458 0.5799185 -21.16009 -4.39138 -0 22.05062 -0 -9.643874 5.467755 -1.337696 -4.857024 11.03888 -9.0558 -0 11.59847 -0 0.1892897 -19.68998 15.37742 -0.01788015 -0.9678112 4.314871 1.148467 12.41937 -7.474181 1.459677 21.27819 5.839469 1.027844 -24.30701 8.676289 -6.315568 -22.7144 10.26588 100.4265 22.44085 -23.02918 -0 0 7.911743 -16.51523 6.714003 8.150052 3.21548 -25.14302 -6.236976 -83.55084 17.01452 16.25356 0 0 -34.38601 8.099248 7.907572 5.988809
-1222.223 100.717 2531.093 -4.121022 -3.283113 -57.36214 0.6703148 -24.81365 -5.096013 -0 14.23313 -0 -8.765959 4.649175 -1.578214 -5.087892 13.29402 -8.819003 -0 12.28358 -0 -0.2790886 -21.16226 14.4195 0.1192822 -0.9111092 4.05346 1.309499 12.30526 -7.845742 1.479575 21.11046 6.108417 1.275471 -24.39206 8.783542 -6.254095 -21.97183 10.37716 101.0461 22.41475 -24.38515 -0 0 6.439165 -16.35295 6.856706 7.6576 3.381096 -26.02215 -6.332968 -82.56226 16.57214 14.45849 0 0 -36.87413 8.376077 8.140938 5.623276
-1227.032 99.44359 2534.194 -3.027531 -2.692407 -57.15594 1.060348 -27.21499 -5.36885 -0 8.489623 -0 -7.958588 4.672189 -1.705406 -5.322949 15.17082 -8.577079 -0 14.39453 -0 -0.794858 -21.70229 13.65991 0.2171994 -0.8597931 3.877893 1.428237 12.19422 -8.113038 1.491718 20.94016 6.326192 1.475567 -24.48022 8.86986 -6.187462 -21.44026 10.45513 101.4525 22.48764 -25.33339 -0 0 5.441805 -16.20725 6.970655 7.322547 3.510893 -26.64125 -6.362051 -81.85526 16.19503 13.19865 0 0 -38.70929 8.553643 8.259725 5.393461
-1232.228 98.3586 2537.417 -2.208781 -2.075358 -56.97555 1.926933 -28.30624 -4.992581 -0 5.415481 -0 -7.359874 5.189308 -1.821859 -5.426708 16.49681 -8.258373 -0 18.19249 -0 -1.30831 -20.98843 13.07852 0.2663039 -0.8223912 3.791632 1.500687 12.10789 -8.267 1.495016 20.79058 6.475709 1.612237 -24.55296 8.928953 -6.109766 -21.1395 10.50147 101.6436 22.65715 -25.8575 -0 0 4.936491 -16.07074 7.046828 7.150356 3.589162 -26.97657 -6.339634 -81.4462 15.92848 12.51285 0 0 -39.79817 8.636066 8.266475 5.293283
-1237.788 97.67555 2540.759 -1.836556 -1.466753 -56.85411 3.2804 -27.99882 -3.918859 -0 4.993193 -0 -7.073581 5.643517 -2.015341 -5.285239 16.97126 -7.84763 -0 23.82036 -0 -1.856638 -18.93361 12.62698 0.263946 -0.8069695 3.795437 1.524634 12.06567 -8.305775 1.488664 20.68031 6.542295 1.671743 -24.59602 8.954009 -6.023762 -21.08026 10.51976 101.6302 22.90201 -25.95987 -0 0 4.919408 -15.94513 7.083938 7.1395 3.602926 -27.02476 -6.284934 -81.33605 15.79332 12.41421 0 0 -40.10599 8.632743 8.175877 5.309639
-1243.611 97.54144 2544.183 -1.983508 -0.9547034 -56.8647 4.899347 -26.22163 -2.35067 -0 6.603781 -0 -7.142123 5.460732 -2.323407 -4.85712 16.23211 -7.391952 -0 31.16266 -0 -2.505141 -15.77502 12.28196 0.2144365 -0.8191455 3.888734 1.498619 12.08034 -8.232404 1.472668 20.61995 6.515643 1.644757 -24.60105 8.938769 -5.940138 -21.26538 10.51394 101.4284 23.18871 -25.65241 -0 0 5.37561 -15.84254 7.088018 7.285216 3.544757 -26.79825 -6.214744 -81.51667 15.78577 12.89769 0 0 -39.64771 8.552349 8.010555 5.430352
-1249.528 98.00223 2547.623 -2.577776 -0.6645352 -57.0933 6.377999 -23.01572 -0.7002617 -0 9.168825 -0 -7.537912 4.287286 -2.708583 -4.211765 13.96931 -6.970023 -0 39.68162 -0 -3.252833 -12.07294 12.08307 0.1273515 -0.8609298 4.069104 1.421963 12.15508 -8.053224 1.448138 20.61047 6.391984 1.52845 -24.56722 8.879445 -5.874526 -21.69017 10.48687 101.0554 23.4806 -24.95141 -0 0 6.284159 -15.78328 7.070825 7.581905 3.41527 -26.32014 -6.138507 -81.9741 15.88199 13.94302 0 0 -38.47587 8.400565 7.796266 5.64703
-1255.341 98.98001 2550.989 -3.408259 -0.714499 -57.59041 7.30185 -18.60643 0.5945158 -0 11.45253 -0 -8.162653 2.17852 -3.05581 -3.514859 10.06308 -6.638776 -0 48.32305 -0 -3.973982 -8.569921 12.10817 0.01509623 -0.9305146 4.330539 1.295814 12.28267 -7.777565 1.417195 20.64328 6.17571 1.327726 -24.50196 8.77653 -5.843537 -22.34146 10.4394 100.5283 23.74552 -23.87801 -0 0 7.617574 -15.79107 7.047701 8.023292 3.224309 -25.62092 -6.05643 -82.68869 16.04471 15.51221 0 0 -36.67064 8.181529 7.557732 5.952978
-1260.881 100.2787 2554.2 -4.202463 -1.154084 -58.32384 7.456896 -13.38259 1.287456 -0 12.48936 -0 -8.858385 -0.4079389 -3.212865 -2.930348 4.695727 -6.390364 -0 55.59812 -0 -4.446346 -5.924907 12.409 -0.1094924 -1.022787 4.661743 1.1245 12.44694 -7.41829 1.382547 20.70223 5.879708 1.055098 -24.42037 8.635599 -5.860987 -23.196 10.37035 99.86488 23.96004 -22.46244 -0 0 9.337237 -15.88736 7.034948 8.600676 2.99004 -24.73679 -5.960985 -83.63284 16.23077 17.54481 0 0 -34.33353 7.900963 7.315562 6.339044
-1266.057 101.6263 2557.207 -4.75435 -1.908569 -59.17243 6.942428 -7.801062 1.418224 -0 11.97079 -0 -9.457407 -2.886887 -3.07644 -2.479233 -1.625178 -6.139188 -0 59.88206 -0 -4.465341 -4.447445 12.97772 -0.2351375 -1.130272 5.045681 0.9163352 12.62603 -6.992206 1.346865 20.76716 5.524128 0.7291617 -24.34256 8.466739 -5.935129 -24.21954 10.27724 99.08607 24.11081 -20.74899 -0 0 11.38824 -16.08591 7.046648 9.300423 2.735958 -23.70886 -5.840831 -84.7687 16.39885 19.9549 0 0 -31.58248 7.568678 7.084252 6.790525
-1270.865 102.7407 2560.013 -5.028192 -2.764165 -59.98043 6.129959 -2.309967 1.224117 -0 10.35021 -0 -9.8631 -4.940196 -2.679046 -1.969545 -8.154545 -5.738144 -0 59.86776 -0 -3.972427 -4.001834 13.76442 -0.3534822 -1.244246 5.460833 0.6833421 12.79652 -6.519661 1.312228 20.8184 5.133947 0.3721647 -24.28961 8.282913 -6.067259 -25.36739 10.15756 98.21792 24.19388 -18.79873 -0 0 13.69649 -16.38915 7.091382 10.10177 2.486649 -22.58201 -5.685465 -86.04756 16.51664 22.63264 0 0 -28.54711 7.199193 6.871385 7.286718
-1275.373 103.3922 2562.671 -5.157531 -3.425676 -60.63948 5.488648 2.67417 0.9564177 -0 8.553657 -0 -10.0787 -6.719181 -2.196042 -1.093911 -14.0713 -5.034122 -0 55.04806 -0 -3.094984 -4.136937 14.69156 -0.4595995 -1.355804 5.88355 0.4400392 12.93744 -6.023568 1.27983 20.84081 4.736124 0.007505495 -24.27904 8.097989 -6.251625 -26.58587 10.01041 97.29242 24.21332 -16.69045 -0 0 16.16794 -16.78633 7.169788 10.97519 2.263628 -21.40417 -5.489253 -87.41085 16.56574 25.44934 0 0 -25.36556 6.810751 6.678318 7.80262
-1279.68 103.4546 2565.278 -5.322577 -3.642377 -61.13837 5.343585 6.80574 0.7543153 -0 7.456499 -0 -10.13834 -8.659412 -1.840605 0.3216909 -18.66939 -3.982896 -0 46.07234 -0 -2.076408 -4.33659 15.64008 -0.5516143 -1.456756 6.290392 0.201843 13.03352 -5.528482 1.250089 20.82696 4.357017 -0.34224 -24.32077 7.925035 -6.476132 -27.81374 9.838191 96.3487 24.17948 -14.52139 -0 0 18.68801 -17.25331 7.273669 11.88094 2.082279 -20.22672 -5.254385 -88.79147 16.54393 28.26252 0 0 -22.18507 6.423752 6.502317 8.31128
-1283.914 102.9375 2567.951 -5.589439 -3.342103 -61.55191 5.675232 9.926489 0.647059 -0 7.464287 -0 -10.03361 -11.03421 -1.718941 2.075719 -21.55852 -2.781905 -0 34.77687 -0 -1.174375 -4.251206 16.46124 -0.6297005 -1.540344 6.659834 -0.01653923 13.07771 -5.059842 1.223076 20.77918 4.020147 -0.6567773 -24.41398 7.775086 -6.72334 -28.98345 9.648217 95.43414 24.10688 -12.4077 -0 0 21.12133 -17.7536 7.38684 12.7683 1.95024 -19.10545 -4.992654 -90.11575 16.46526 30.92033 0 0 -19.16343 6.059227 6.339537 8.785923
-1288.215 101.9865 2570.819 -5.847962 -2.692575 -61.98753 6.092951 12.19756 0.6117691 -0 8.466632 -0 -9.739079 -13.59173 -1.753205 3.588872 -22.81068 -1.876494 -0 23.71172 -0 -0.5966157 -3.832472 17.05713 -0.6948291 -1.601792 6.973554 -0.2026654 13.07272 -4.642709 1.199105 20.71007 3.744121 -0.9193589 -24.54563 7.656257 -6.97174 -30.02397 9.453416 94.60323 24.01153 -10.4806 -0 0 23.3162 -18.2416 7.487792 13.57737 1.867327 -18.09986 -4.725365 -91.30782 16.35836 33.26904 0 0 -16.46437 5.737146 6.187991 9.202008
-1292.719 100.8378 2573.986 -5.919706 -2.043787 -62.52589 6.049682 14.08807 0.6002916 -0 10.16965 -0 -9.305491 -15.55246 -1.734411 4.218431 -22.90737 -1.756055 -0 15.23099 -0 -0.4745941 -3.330339 17.47375 -0.7475795 -1.638681 7.217565 -0.3476977 13.03052 -4.299565 1.179197 20.64045 3.540894 -1.117936 -24.69198 7.573178 -7.197775 -30.86731 9.271451 93.91225 23.90779 -8.873816 -0 0 25.11877 -18.66941 7.554411 14.24557 1.827076 -17.2687 -4.480409 -92.2978 16.26138 35.16682 0 0 -14.24222 5.474349 6.049859 9.539404
-1297.521 99.74455 2577.505 -5.747381 -1.766518 -63.17709 5.182628 16.11861 0.5613294 -0 12.51813 -0 -8.909588 -15.97534 -1.47524 3.636821 -22.4293 -2.692888 -0 10.59455 -0 -0.8378825 -3.13788 17.89368 -0.7872938 -1.651097 7.382879 -0.4470132 12.96927 -4.047864 1.165149 20.59381 3.415005 -1.245902 -24.82368 7.526853 -7.378879 -31.45767 9.121864 93.41038 23.80548 -7.703642 -0 0 26.39614 -18.9961 7.57027 14.7185 1.819678 -16.66258 -4.286624 -93.03078 16.21273 36.50162 0 0 -12.62032 5.282737 5.932704 9.784026
-1302.661 98.91669 2581.35 -5.478684 -2.066967 -63.86361 3.534863 18.47681 0.4871618 -0 15.82875 -0 -8.785604 -14.24314 -0.9302833 1.97637 -21.69249 -4.610821 -0 9.641474 -0 -1.57483 -3.553212 18.49818 -0.8118298 -1.641529 7.465172 -0.4996605 12.90843 -3.898717 1.159148 20.58902 3.364232 -1.302083 -24.91322 7.515071 -7.497091 -31.76004 9.022035 93.13139 23.70847 -7.049677 -0 0 27.05941 -19.19605 7.530439 14.96088 1.835403 -16.31712 -4.167494 -93.47189 16.23996 37.20517 0 0 -11.67471 5.168826 5.849303 9.927821
-1308.106 98.49777 2585.42 -5.360582 -2.892115 -64.44551 1.512421 20.79331 0.409184 -0 20.51216 -0 -9.075862 -10.36292 -0.1829877 -0.2809958 -20.62464 -7.101977 -0 11.18659 -0 -2.428941 -4.609109 19.31727 -0.8179742 -1.614418 7.463496 -0.5069243 12.86389 -3.857334 1.163098 20.63437 3.381617 -1.289836 -24.94174 7.533417 -7.542181 -31.76374 8.983529 93.09011 23.61521 -6.945604 -0 0 27.07542 -19.26241 7.443789 14.96209 1.867228 -16.24998 -4.136937 -93.60501 16.35147 37.25596 0 0 -11.43231 5.135112 5.815975 9.966875
-1313.761 98.56043 2589.572 -5.559152 -3.984324 -64.78244 -0.3419647 22.27249 0.3207405 -0 26.63289 -0 -9.741278 -4.956245 0.6345939 -2.53175 -18.94116 -9.567427 -0 13.74933 -0 -3.085943 -6.08119 20.20408 -0.8022496 -1.57529 7.378881 -0.4708465 12.84487 -3.924522 1.177991 20.72608 3.458228 -1.215474 -24.90278 7.576659 -7.513336 -31.47992 9.010203 93.28473 23.52062 -7.382734 -0 0 26.46279 -19.20477 7.330218 14.73396 1.911938 -16.46239 -4.198436 -93.4277 16.53464 36.67146 0 0 -11.88228 5.182278 5.849632 9.8989
-1319.477 99.09909 2593.66 -6.069171 -5.027674 -64.79211 -1.588816 22.08282 0.1450112 -0 33.64888 -0 -10.60352 0.970643 1.381915 -4.285882 -16.41697 -11.45397 -0 16.12256 -0 -3.310992 -7.647728 20.92949 -0.7617044 -1.529602 7.21383 -0.3934575 12.85293 -4.09787 1.203548 20.85068 3.585639 -1.086561 -24.80262 7.640015 -7.419028 -30.93556 9.098373 93.70166 23.4181 -8.320602 -0 0 25.27847 -19.04357 7.214405 14.3037 1.969798 -16.94283 -4.346561 -92.94709 16.75938 35.49637 0 0 -12.99091 5.310629 5.964179 9.721985
-1325.084 100.0211 2597.576 -6.750108 -5.778697 -64.47387 -2.050075 19.7346 -0.1897247 -0 40.46841 -0 -11.44278 6.328691 1.91516 -5.319559 -13.04586 -12.46752 -0 17.59768 -0 -3.037294 -9.075279 21.29562 -0.6944206 -1.481683 6.973051 -0.2769324 12.88257 -4.371839 1.238205 20.98907 3.757229 -0.9107073 -24.65797 7.719789 -7.275273 -30.16795 9.238407 94.31901 23.30084 -9.696557 -0 0 23.60487 -18.80475 7.119471 13.70668 2.043374 -17.66971 -4.569061 -92.17956 16.98414 33.79479 0 0 -14.7107 5.519665 6.167089 9.435726
